<svg xmlns="http://www.w3.org/2000/svg" viewBox="0 0 585.69 535.29"><defs><style>.cls-1{fill:#f34c3f;}.cls-2{fill:#fff;}</style></defs><title>Like</title><g id="Layer_2" data-name="Layer 2"><g id="Layer_1-2" data-name="Layer 1"><path class="cls-1" d="M404,3.69,103.41,75.31A134.57,134.57,0,0,0,3.69,237.4l15.93,66.83a134.56,134.56,0,0,0,162.09,99.71l35.94-8.56a10.93,10.93,0,0,1,13.31,9c16.54,105.53-46.23,130.93-46.23,130.93C269.8,506,298,422.33,306.87,380.5a10.89,10.89,0,0,1,8.12-8.32l167.29-39.85A134.57,134.57,0,0,0,582,170.23l-15.92-66.82A134.57,134.57,0,0,0,404,3.69Z"/><path class="cls-2" d="M380.92,202.29l-63.39,103-103-63.39c-77.2-47.48-13.81-150.52,63.39-103C324.08,63.8,427.12,127.19,380.92,202.29Z"/></g></g></svg>